<svg width="553" height="269" viewBox="0 0 553 269" fill="none" xmlns="http://www.w3.org/2000/svg">
<path d="M201.017 99.7912L203.937 171.552L181.891 174.819L178.19 137.207L171.325 168.55L162.777 169.436L152.295 143.131L155.46 174.613L133.092 177.618L127.107 110.396L151.97 106.838L165.21 137.963L174.887 102.499L201.017 99.7912Z" fill="black"/>
<path d="M271.887 159.798L248.119 165.402L244.067 154.728L232.994 155.876L231.703 167.104L206.682 167.242L219.307 100.547L246.17 96.388L271.887 159.798ZM240.779 140.047L235.336 123.528L233.493 140.802L240.779 140.047Z" fill="black"/>
<path d="M311.653 90.6815L313.302 111.325L298.889 113.407L301.812 158.66L281.427 161.852L274.91 116.973L260.517 119.25L258.724 96.2651L311.653 90.6815Z" fill="black"/>
<path d="M370.682 114.116C370.974 116.933 371.072 119.77 370.975 122.627C365.476 123.557 360.032 124.71 354.643 126.087C349.252 127.431 343.861 128.775 338.469 130.12C339.553 132.364 341.057 134.089 342.982 135.297C344.939 136.502 347.165 136.975 349.658 136.716C350.953 136.582 352.336 136.193 353.808 135.55C355.312 134.903 356.788 134.145 358.236 133.275C359.68 132.372 361.055 131.428 362.36 130.442C363.665 129.456 364.784 128.57 365.717 127.786L365.671 150.078C364.509 151.18 363.219 152.148 361.8 152.983C360.413 153.814 358.948 154.522 357.406 155.107C355.863 155.693 354.292 156.166 352.693 156.528C351.094 156.89 349.518 157.152 347.964 157.313C344.758 157.645 341.782 157.512 339.037 156.913C336.291 156.314 333.753 155.349 331.423 154.02C329.121 152.655 327.05 150.988 325.21 149.019C323.37 147.049 321.784 144.857 320.454 142.443C319.124 140.028 318.037 137.441 317.195 134.681C316.353 131.921 315.782 129.1 315.484 126.218C315.171 123.207 315.135 120.167 315.373 117.099C315.611 114.031 316.137 111.047 316.949 108.149C317.794 105.247 318.935 102.527 320.374 99.9884C321.842 97.4145 323.617 95.1197 325.699 93.104C327.781 91.0883 330.194 89.4309 332.939 88.1319C335.717 86.8295 338.838 85.9988 342.303 85.6397C345.184 85.3411 347.849 85.474 350.297 86.0385C352.773 86.5673 355.008 87.4484 357.001 88.6818C359.024 89.8794 360.815 91.3791 362.377 93.1809C363.97 94.9793 365.325 96.9989 366.441 99.2396C367.586 101.444 368.503 103.82 369.192 106.367C369.91 108.878 370.407 111.461 370.682 114.116ZM350.993 113.604C350.899 112.697 350.707 111.784 350.415 110.866C350.12 109.914 349.706 109.074 349.172 108.344C348.67 107.61 348.038 107.037 347.276 106.626C346.51 106.181 345.592 106.015 344.524 106.125C343.229 106.26 342.116 106.735 341.186 107.551C340.286 108.332 339.534 109.293 338.933 110.436C338.328 111.546 337.862 112.739 337.537 114.017C337.211 115.294 336.988 116.462 336.869 117.522L351.104 114.672L350.993 113.604Z" fill="black"/>
<path d="M425.16 123.001C425.62 127.436 425.24 131.354 424.022 134.753C422.832 138.116 421.003 140.989 418.533 143.372C416.093 145.72 413.128 147.582 409.638 148.958C406.177 150.298 402.39 151.182 398.278 151.608C396.692 151.772 394.921 151.743 392.967 151.52C391.046 151.294 389.082 150.974 387.075 150.56C385.065 150.113 383.117 149.628 381.23 149.104C379.372 148.544 377.713 148.012 376.254 147.509L376.418 128.248C379.341 129.615 382.516 130.562 385.941 131.09C389.396 131.583 392.742 131.662 395.98 131.326C396.595 131.263 397.338 131.169 398.209 131.046C399.077 130.891 399.887 130.66 400.641 130.352C401.423 130.01 402.065 129.567 402.565 129.024C403.065 128.481 403.268 127.757 403.174 126.85C403.11 126.235 402.862 125.737 402.43 125.356C401.995 124.943 401.456 124.639 400.814 124.444C400.168 124.216 399.45 124.078 398.66 124.029C397.866 123.947 397.093 123.913 396.342 123.925C395.591 123.938 394.891 123.978 394.243 124.045C393.596 124.112 393.078 124.166 392.689 124.206C389.905 124.494 387.318 124.321 384.928 123.685C382.571 123.045 380.485 122.018 378.669 120.603C376.882 119.151 375.418 117.34 374.277 115.167C373.132 112.962 372.415 110.467 372.126 107.683C371.731 103.862 372.137 100.367 373.347 97.1984C374.586 93.9937 376.375 91.2065 378.715 88.8368C381.084 86.4314 383.877 84.4892 387.095 83.0103C390.312 81.5314 393.702 80.6075 397.263 80.2383C398.85 80.0739 400.492 79.9692 402.189 79.9242C403.883 79.8469 405.57 79.8683 407.252 79.9886C408.966 80.1055 410.639 80.3084 412.273 80.5973C413.906 80.8862 415.471 81.2968 416.966 81.8291L417.164 101.739C414.885 101.222 412.506 100.847 410.027 100.613C407.578 100.343 405.203 100.328 402.904 100.566C402.484 100.61 401.935 100.683 401.258 100.786C400.611 100.853 399.92 100.973 399.185 101.148C398.479 101.286 397.763 101.475 397.035 101.714C396.307 101.953 395.666 102.249 395.114 102.601C394.558 102.92 394.125 103.325 393.816 103.815C393.507 104.305 393.4 104.856 393.496 105.468C393.603 106.177 393.919 106.701 394.445 107.039C395.003 107.374 395.681 107.598 396.478 107.712C397.304 107.79 398.187 107.78 399.126 107.683C400.097 107.582 401.051 107.467 401.986 107.337C402.919 107.175 403.788 107.036 404.594 106.92C405.397 106.771 406.059 106.686 406.58 106.665C409.187 106.558 411.576 106.867 413.745 107.591C415.915 108.316 417.792 109.381 419.378 110.787C420.996 112.191 422.29 113.938 423.259 116.03C424.258 118.087 424.891 120.41 425.16 123.001Z" fill="black"/>
<path d="M213.311 198.091C213.506 200.113 213.501 201.971 213.298 203.665C213.118 205.33 212.719 206.886 212.099 208.332C211.48 209.779 210.63 211.142 209.55 212.424C208.47 213.705 207.138 214.958 205.556 216.183L216.397 231.779L199.229 236.884L191.646 220.897L186.84 221.516L187.697 237.759L170.977 239.368C170.538 233.445 170.088 227.55 169.628 221.682C169.194 215.811 168.77 209.913 168.357 203.988C168.122 201.002 167.889 198.042 167.659 195.107C167.429 192.173 167.248 189.208 167.117 186.212C168.866 185.364 170.601 184.634 172.322 184.024C174.042 183.413 175.772 182.907 177.512 182.504C179.276 182.073 181.061 181.731 182.869 181.478C184.699 181.197 186.573 180.965 188.492 180.78C191.447 180.496 194.338 180.636 197.166 181.201C200.017 181.738 202.583 182.72 204.866 184.149C207.149 185.577 209.043 187.449 210.547 189.763C212.078 192.075 212.999 194.851 213.311 198.091ZM196.011 201.012C195.907 199.923 195.655 198.94 195.257 198.063C194.884 197.183 194.369 196.448 193.71 195.857C193.075 195.238 192.299 194.79 191.383 194.511C190.49 194.205 189.46 194.108 188.294 194.22C187.776 194.27 187.274 194.358 186.789 194.483C186.301 194.582 185.83 194.719 185.376 194.893L186.146 209.418L187.08 209.328C188.194 209.221 189.308 208.969 190.421 208.575C191.56 208.177 192.555 207.637 193.405 206.953C194.28 206.267 194.959 205.43 195.439 204.442C195.945 203.451 196.136 202.308 196.011 201.012Z" fill="black"/>
<path d="M268.35 227.249L249.304 231.594L246.125 223.031L237.26 223.884L236.161 232.859L216.144 232.823L226.634 179.542L248.148 176.372L268.35 227.249ZM243.58 211.267L239.322 198.021L237.748 211.829L243.58 211.267Z" fill="black"/>
<path d="M300.567 172.19L301.765 188.714L290.223 190.296L292.296 226.514L275.97 228.949L271.019 193.008L259.492 194.745L258.192 176.347L300.567 172.19Z" fill="black"/>
<path d="M347.652 191.283C347.869 193.538 347.93 195.808 347.836 198.093C343.431 198.805 339.069 199.696 334.751 200.765C330.43 201.809 326.109 202.853 321.788 203.897C322.642 205.698 323.835 207.088 325.368 208.065C326.927 209.04 328.705 209.431 330.701 209.239C331.737 209.14 332.846 208.837 334.027 208.331C335.234 207.822 336.419 207.224 337.583 206.536C338.744 205.823 339.849 205.075 340.899 204.294C341.948 203.513 342.849 202.812 343.6 202.19L343.433 220.022C342.497 220.897 341.459 221.664 340.319 222.323C339.205 222.98 338.029 223.538 336.791 223.997C335.553 224.456 334.294 224.826 333.013 225.106C331.731 225.387 330.469 225.587 329.225 225.707C326.658 225.954 324.279 225.829 322.086 225.334C319.893 224.839 317.868 224.053 316.011 222.975C314.178 221.87 312.531 220.524 311.071 218.938C309.61 217.352 308.355 215.589 307.304 213.65C306.254 211.71 305.401 209.634 304.743 207.421C304.085 205.208 303.645 202.948 303.423 200.641C303.191 198.231 303.179 195.799 303.388 193.345C303.597 190.892 304.034 188.509 304.701 186.195C305.394 183.878 306.323 181.709 307.489 179.687C308.678 177.636 310.111 175.811 311.789 174.21C313.466 172.61 315.407 171.298 317.61 170.275C319.84 169.25 322.342 168.603 325.115 168.336C327.422 168.114 329.553 168.236 331.508 168.702C333.486 169.14 335.269 169.858 336.856 170.856C338.467 171.826 339.891 173.036 341.13 174.487C342.394 175.935 343.466 177.558 344.346 179.357C345.249 181.128 345.968 183.034 346.505 185.075C347.065 187.088 347.447 189.157 347.652 191.283ZM331.904 190.758C331.834 190.032 331.685 189.301 331.457 188.564C331.227 187.801 330.901 187.126 330.478 186.539C330.081 185.949 329.579 185.488 328.971 185.154C328.361 184.794 327.628 184.655 326.772 184.737C325.736 184.837 324.843 185.211 324.094 185.858C323.369 186.478 322.762 187.242 322.274 188.153C321.784 189.037 321.405 189.989 321.137 191.009C320.868 192.029 320.684 192.963 320.582 193.81L331.986 191.613L331.904 190.758Z" fill="black"/>
<path d="M391.181 198.709C391.523 202.26 391.196 205.392 390.201 208.104C389.23 210.787 387.75 213.075 385.76 214.967C383.794 216.831 381.411 218.303 378.612 219.383C375.835 220.435 372.801 221.12 369.509 221.437C368.238 221.559 366.822 221.525 365.261 221.335C363.725 221.143 362.155 220.876 360.553 220.533C358.947 220.164 357.392 219.764 355.885 219.334C354.402 218.875 353.078 218.44 351.914 218.029L352.157 202.622C354.488 203.732 357.022 204.508 359.759 204.951C362.52 205.366 365.196 205.448 367.789 205.199C368.281 205.151 368.876 205.081 369.574 204.988C370.268 204.868 370.918 204.688 371.523 204.447C372.151 204.177 372.667 203.827 373.07 203.395C373.473 202.964 373.64 202.386 373.57 201.66C373.523 201.167 373.327 200.767 372.984 200.46C372.638 200.127 372.208 199.881 371.696 199.721C371.181 199.535 370.607 199.42 369.975 199.376C369.341 199.307 368.723 199.275 368.122 199.28C367.52 199.286 366.961 199.313 366.442 199.363C365.924 199.413 365.509 199.453 365.198 199.483C362.969 199.698 360.9 199.544 358.992 199.021C357.11 198.496 355.447 197.662 354.003 196.519C352.582 195.347 351.422 193.889 350.521 192.145C349.618 190.374 349.059 188.374 348.845 186.145C348.55 183.086 348.896 180.293 349.883 177.765C350.892 175.208 352.34 172.989 354.226 171.107C356.135 169.196 358.381 167.659 360.963 166.495C363.546 165.331 366.263 164.611 369.114 164.337C370.384 164.215 371.698 164.14 373.056 164.114C374.412 164.062 375.762 164.089 377.106 164.195C378.477 164.299 379.814 164.471 381.119 164.712C382.425 164.952 383.674 165.29 384.867 165.725L384.908 181.653C383.088 181.227 381.188 180.913 379.206 180.711C377.248 180.481 375.349 180.454 373.508 180.631C373.171 180.664 372.732 180.719 372.19 180.798C371.671 180.847 371.118 180.94 370.529 181.075C369.964 181.182 369.389 181.329 368.806 181.516C368.222 181.703 367.708 181.935 367.264 182.214C366.817 182.466 366.469 182.787 366.219 183.178C365.968 183.568 365.88 184.008 365.953 184.498C366.034 185.066 366.284 185.487 366.703 185.76C367.147 186.031 367.688 186.215 368.325 186.31C368.986 186.378 369.692 186.375 370.444 186.303C371.221 186.228 371.985 186.141 372.734 186.043C373.481 185.919 374.177 185.813 374.822 185.724C375.465 185.61 375.996 185.546 376.413 185.532C378.499 185.462 380.408 185.723 382.139 186.315C383.871 186.907 385.366 187.77 386.627 188.905C387.913 190.037 388.938 191.442 389.701 193.122C390.488 194.773 390.981 196.635 391.181 198.709Z" fill="black"/>
<path d="M117.507 110.749L98.9985 105.935C96.3293 105.24 92.5391 103.117 87.628 99.5643C82.7168 96.0118 77.8847 92.2856 73.1317 88.3859C68.3787 84.4862 63.1586 80.6869 57.4712 76.9879C51.7839 73.289 46.8295 70.9459 42.608 69.9587C39.2763 69.2029 35.4741 69.2125 31.2013 69.9875C26.9285 70.7624 23.1486 71.8597 19.8616 73.2795C16.5746 74.6992 13.2382 76.4391 9.85253 78.499C6.46684 80.5589 4.19393 81.9928 3.03382 82.8007C1.87371 83.6086 0.944815 84.3102 0.247131 84.9054L0.527226 89.3061L31.1535 88.9507L32.9789 89.7585C34.35 90.2262 35.7198 91.2206 37.0882 92.7418C38.4567 94.2629 39.2288 95.9896 39.4047 97.9219L39.0641 101.578L37.5309 104.342L35.6082 106.256L33.9086 107.312L33.215 107.63L7.09551 108.659L5.79767 113.648L14.4909 118.573C20.2864 121.856 26.5267 125.255 33.2119 128.769C39.8971 132.284 44.1294 134.273 45.9089 134.736C49.3407 135.628 53.5425 135.778 58.5143 135.185C63.4862 134.592 68.9164 134.063 74.805 133.597C80.6936 133.132 86.3977 133.506 91.9172 134.72C97.5639 135.967 105.323 138.873 115.196 143.439C117.012 144.279 118.815 145.117 120.602 145.954L117.507 110.749Z" fill="black"/>
<path d="M430.546 109.08C432.092 108.081 433.622 107.086 435.134 106.095C435.387 105.724 435.68 105.414 435.974 105.104C436.711 104.326 437.452 103.543 437.582 101.779C444.67 98.6097 451.401 94.8041 458.312 90.8966C465.267 86.9646 472.403 82.9295 480.271 79.3358C481.303 78.8613 482.381 78.3238 483.48 77.7758C487.678 75.6826 492.181 73.4371 495.609 73.9724L503.352 75.5665C512.361 78.8306 517.924 82.7331 519.743 91.5238C520.207 93.8024 519.991 96.2615 519.777 98.7053C519.57 101.068 519.365 103.416 519.775 105.574C520.336 108.57 524.091 117.568 527.07 118.599C529.38 119.405 532.331 118.538 535.403 116.98L546.185 111.426C549.232 109.831 551.639 107.939 552.337 105.582C553.222 102.569 548.116 94.2555 545.999 92.0655C544.478 90.4646 542.443 89.2629 540.398 88.0548C538.3 86.8158 536.192 85.5701 534.613 83.8804C528.525 77.2671 528.584 70.4845 531.189 61.241C520.537 38.5451 501.184 15.3073 467.204 4.99455C466.142 4.67326 465.09 4.34715 464.046 4.02379C456.019 1.53636 448.517 -0.788444 441.173 0.496675C438.239 2.6312 439.832 4.54408 441.923 5.9334C441.417 6.00245 440.891 6.02399 440.364 6.04554C438.147 6.13626 435.924 6.2272 435.222 9.86436C457.654 13.6809 492.649 33.622 483.924 51.233C482.37 54.319 477.95 56.6773 473.82 58.8807C472.727 59.4637 471.655 60.0358 470.661 60.6077C463.147 64.9281 455.706 68.4014 448.458 71.7843C441.273 75.1382 434.277 78.4034 427.59 82.3172C427.385 82.1948 427.189 82.0916 427 82.0049V104.278C428.297 105.684 429.487 107.296 430.546 109.08Z" fill="black"/>
<path d="M398.57 211.484L408.485 214.964L412.528 200.841L501.974 226.44L512.731 236.31L541.094 235.09L544.237 224.105L521.264 206.495L506.354 208.17L417.468 183.579L421.51 169.456L407.947 166.423C407.947 166.423 406.505 176.896 394 174.252V182.984C398.296 187.287 401 193.54 401 200.5C401 204.468 400.121 208.206 398.57 211.484Z" fill="black"/>
<path d="M158 188.28L49.1729 233.322C48.7975 233.478 48.4319 233.651 48.0777 233.84L38.0478 237.985L50.6043 268.367L65.6192 262.162L60.94 250.858L67.3419 248.208L72.0184 259.517L78.4171 256.873L69.7721 235.998L76.1794 233.349L84.8246 254.225L91.2276 251.578L86.539 240.263L92.9408 237.614L97.6308 248.932L104.03 246.288L99.3398 234.969L105.742 232.319L110.433 243.641L116.832 240.997L108.177 220.11L114.579 217.46L123.235 238.35L129.63 235.707L124.939 224.374L131.341 221.724L136.037 233.06L142.441 230.413L137.742 219.075L144.144 216.425L148.852 227.764L155.243 225.122L146.583 204.211L152.985 201.561L158 213.665V188.28Z" fill="black"/>
</svg>
